<?xml version="1.0" encoding="utf-8"?>
<!-- Generator: Adobe Illustrator 21.0.2, SVG Export Plug-In . SVG Version: 6.00 Build 0)  -->
<svg version="1.1" id="Layer_1" xmlns="http://www.w3.org/2000/svg" xmlns:xlink="http://www.w3.org/1999/xlink" x="0px" y="0px"
	 width="102px" height="20px" viewBox="0 0 102 20" style="enable-background:new 0 0 102 20;" xml:space="preserve">
<style type="text/css">
	.st0{fill:#3E3E44;}
</style>
<g>
	<polygon class="st0" points="11.8,14.1 3.7,1.5 0,1.5 0,19.7 3.7,19.7 3.7,7.1 11.8,19.7 15.5,19.7 15.5,1.5 11.8,1.5 	"/>
	<path class="st0" d="M30.7,5.1l-1,1.1c-1.3-0.9-2.7-1.3-4.4-1.3c-2.1,0-3.9,0.7-5.3,2c-1.4,1.4-2.1,3.1-2.1,5.2s0.6,3.8,1.7,5.2
		l-2,2.2h2.2l1-1.1c1.2,0.9,2.7,1.4,4.4,1.4c2.1,0,3.9-0.7,5.3-2.1s2.1-3.1,2.1-5.2S32,8.7,30.8,7.3l2-2.2
		C32.8,5.1,30.7,5.1,30.7,5.1z M21.6,12.3c0-1.4,0.4-2.5,1.1-3.2C23.3,8.4,24.2,8,25.1,8s1.7,0.2,2.4,0.7L22,14.6
		C21.7,13.9,21.6,13.2,21.6,12.3z M27.9,15.5c-0.7,0.8-1.6,1.1-2.5,1.1s-1.7-0.2-2.3-0.7l5.4-5.9c0.3,0.7,0.5,1.4,0.5,2.3
		C29,13.7,28.6,14.7,27.9,15.5z"/>
	<path class="st0" d="M38.8,7.7V5.1h-3.7v14.6h3.7v-7.4c0-1.3,0.3-2.3,0.8-2.8C40.2,9,41,8.7,42.1,8.7H43V4.9
		C41.2,4.9,39.8,5.8,38.8,7.7z"/>
	<path class="st0" d="M51.2,4.9c-2.1,0-3.8,0.7-5.1,2s-2,3.1-2,5.4s0.7,4,2,5.4c1.3,1.4,3,2,5.1,2c1.7,0,3.1-0.4,4.3-1.3
		s2-2,2.4-3.4H54c-0.6,1-1.5,1.6-2.8,1.6c-0.9,0-1.7-0.3-2.3-0.9s-0.9-1.3-1-2.3h10.5c0.1-0.4,0.1-0.9,0.1-1.4c0-2.2-0.7-3.9-2-5.2
		C55.1,5.6,53.3,4.9,51.2,4.9z M47.9,11.1c0.1-1,0.5-1.7,1.1-2.3C49.6,8.3,50.3,8,51.3,8s1.7,0.3,2.3,0.9c0.6,0.6,1,1.3,1,2.3
		L47.9,11.1L47.9,11.1z"/>
	<path class="st0" d="M69,4.9c-2,0-3.5,0.8-4.5,2.4v-7h-3.7v19.4h3.7v-2.6c1.1,1.8,2.6,2.6,4.5,2.6s3.6-0.7,4.8-2.1
		c1.3-1.4,1.9-3.2,1.9-5.3s-0.6-4-1.9-5.3C72.6,5.6,71,4.9,69,4.9z M71,15.4c-0.8,0.8-1.6,1.1-2.7,1.1c-1,0-1.9-0.4-2.7-1.1
		c-0.8-0.8-1.1-1.8-1.1-3.1s0.4-2.4,1.1-3.1c0.8-0.8,1.6-1.1,2.7-1.1c1,0,1.9,0.4,2.7,1.1c0.8,0.7,1.1,1.8,1.1,3.1
		S71.7,14.6,71,15.4z"/>
	<path class="st0" d="M81.9,7.7V5.1h-3.7v14.6h3.7v-7.4c0-1.3,0.3-2.3,0.8-2.8c0.6-0.5,1.4-0.8,2.5-0.8h0.9V4.9
		C84.3,4.9,82.9,5.8,81.9,7.7z"/>
	<path class="st0" d="M99.9,6.9c-1.4-1.4-3.2-2-5.3-2c-2.1,0-3.9,0.7-5.3,2c-1.4,1.4-2.1,3.1-2.1,5.4c0,2.2,0.7,4,2.1,5.4
		c1.4,1.4,3.1,2.1,5.3,2.1c2.1,0,3.9-0.7,5.3-2.1s2.1-3.2,2.1-5.4S101.3,8.3,99.9,6.9z M97.2,15.5c-0.7,0.8-1.6,1.1-2.6,1.1
		s-1.9-0.4-2.6-1.1c-0.7-0.7-1.1-1.8-1.1-3.2s0.4-2.5,1.1-3.2C92.7,8.4,93.6,8,94.6,8s1.9,0.4,2.6,1.1c0.7,0.7,1.1,1.8,1.1,3.2
		S97.9,14.7,97.2,15.5z"/>
</g>
</svg>
